<svg xmlns="http://www.w3.org/2000/svg" viewBox="0 0 131.13 131.13">
  <path d="M105.78,0H25.34A25.37,25.37,0,0,0,0,25.34v80.45a25.37,25.37,0,0,0,25.34,25.34h80.45a25.36,25.36,0,0,0,25.34-25.34V25.34A25.37,25.37,0,0,0,105.78,0Zm8,14.66h2.87V36.42l-21.92.07-.07-21.76Zm-48.2,29c18.19,0,21.94,17.07,21.94,21.95a21.94,21.94,0,0,1-43.87,0c0-4.87,3.75-21.95,21.93-21.95Zm51.19,60.57a12.57,12.57,0,0,1-12.57,12.56H26.7A12.57,12.57,0,0,1,14.13,104.2V51H32.33a41.73,41.73,0,0,0-2.64,14.6,35.85,35.85,0,1,0,71.7,0A41.93,41.93,0,0,0,98.75,51h18V104.2Zm0,0" fill="#fff"/>
</svg>
