<svg xmlns="http://www.w3.org/2000/svg" viewBox="0 0 256.68 92.08">
  <path d="M10 27.56A20.07 20.07 0 002.69 55l6.55 11.31 22-38A20.05 20.05 0 0010 27.56m34.18 19.01L37.45 34.9a20 20 0 00-1.89-2.72l-8.35 14.39zM36.5 82.83a10.28 10.28 0 01-1.17-.07A10.5 10.5 0 0126 71.82v-.69a10.52 10.52 0 0118.3-5.84l-3.66 3.27a5.62 5.62 0 00-9.77 3.12v.14a5.6 5.6 0 005 6.08 5.65 5.65 0 004.84-1.9l3.66 3.26a10.55 10.55 0 01-7.87 3.53m22.33-11L47.35 51.94H24.18L12.6 72l8.2 14.22L22.41 89l1.77 3.07h23.17l10.22-17.7L58.94 72zm8.99-36.51L47.52 0s-3.42 6-6.39 11.1-2.74 13.9.53 19.59L62 66s3.42-6 6.39-11.1 2.73-13.92-.54-19.58m34.76 29.92l-2-5.89c-.37-1.24-.87-3.41-.87-3.41h-.06s-.5 2.17-.87 3.41l-2 5.89zm-5-13.12h4.22l7.72 22h-4.05l-1.89-5.64h-7.72L94 74.14h-4.07zm13.71 0h3.91v16.5c0 1.74.59 2.17 1.61 2.17a4.16 4.16 0 00.59 0v3.41a10 10 0 01-1.24.09c-2.17 0-4.87-.56-4.87-5.09zm15.6 18.39c1.86 0 3.66-1.09 3.66-4.65s-1.8-4.56-3.91-4.56c-2.39 0-3.72 1.74-3.72 4.4s1.39 4.81 4 4.81M126 77.3c2.42 0 4.46-1 4.46-3.84v-1a7.62 7.62 0 01.06-.84h-.06a4.92 4.92 0 01-4.43 2.2c-4.53 0-7.07-3.66-7.07-8S121.4 58 126 58a5.76 5.76 0 014.67 2h.09a1.52 1.52 0 01-.06-.43v-1.25h3.72v14.86c0 5.43-4.22 7.47-8.34 7.47a12.83 12.83 0 01-5.64-1.37l1.21-3a10.19 10.19 0 004.37 1m20.52-6.12a4.94 4.94 0 10-4.68-4.93 4.71 4.71 0 004.68 4.93m0-13.21c4.84 0 8.71 3.44 8.71 8.28s-3.88 8.28-8.68 8.28-8.68-3.41-8.68-8.28 3.84-8.23 8.62-8.23m19.16 0a8.4 8.4 0 016.08 2.36L170 63a6 6 0 00-4.09-1.71 4.7 4.7 0 00-4.81 4.9 4.8 4.8 0 004.93 5 7.07 7.07 0 004.65-2l1.52 2.79a9.13 9.13 0 01-6.51 2.58c-5.24 0-8.59-3.69-8.59-8.28a8.18 8.18 0 018.57-8.28m8.77.32h3.94v9.36c0 1.92.5 3.22 2.45 3.22 2.85 0 4.43-2.51 4.43-5.33v-7.25h3.91v15.82h-3.78v-1.86a6.59 6.59 0 01.09-1.09h-.06a6.14 6.14 0 01-5.49 3.32c-3.41 0-5.49-1.71-5.49-6zm18.56-6.2h3.91v16.5c0 1.74.59 2.17 1.61 2.17a4.16 4.16 0 00.59 0v3.41a10 10 0 01-1.24.09c-2.17 0-4.87-.56-4.87-5.09zm9.27 9.55h-2v-3.13h2.14V54h3.85v4.53h3.6v3.13h-3.6v6.17a2.81 2.81 0 003.13 3 3.15 3.15 0 00.71-.06v3.43a9.87 9.87 0 01-1.21.09c-2.2 0-6.57-.65-6.57-6zm10.2-3.35h3.94v9.36c0 1.92.5 3.22 2.45 3.22 2.85 0 4.43-2.51 4.43-5.33v-7.25h3.91v15.82h-3.78v-1.86a6.59 6.59 0 01.09-1.09h-.06a6.14 6.14 0 01-5.45 3.32c-3.41 0-5.49-1.71-5.49-6zm18.53 0h3.78v2.79a9.94 9.94 0 01-.06 1.08h.06a5.54 5.54 0 015-4.09 5.84 5.84 0 01.74.06V62a6.88 6.88 0 00-1-.06c-3.23 0-4.65 2.79-4.65 5.77v6.39H231zm21.74 5.96a3.11 3.11 0 00-3.16-3.35 3.79 3.79 0 00-3.81 3.35zM249.67 58c4.53 0 7 3.32 7 7.5a12.54 12.54 0 01-.12 1.52h-10.88a4.48 4.48 0 004.74 4.19 7.48 7.48 0 004.53-1.74l1.55 2.82a10 10 0 01-6.36 2.26 8.13 8.13 0 01-8.53-8.28c0-4.87 3.32-8.28 8.06-8.28" fill="#fff"/>
</svg>
