<svg xmlns="http://www.w3.org/2000/svg" viewBox="0 0 744 744"><defs><clipPath id="a"><path fill="none" d="M170.61 170.61h402.78v402.78H170.61z"/></clipPath></defs><circle cx="372" cy="372" r="367" fill="none" stroke="#000" stroke-miterlimit="10" stroke-width="10"/><g clip-path="url(#a)"><path d="M170.61 453.6c0 65.09 74.14 119.62 165.27 119.62 85 0 166.05-1.57 166.05-72.4 0-59.35-62.49-108.48-142.44-116.7V430h-23.61v-47.23c-85 0-165.27 0-165.27 70.83zm212.49 0h23.61v47.22H383.1zm-94.44 23.61H265V430h23.61zm47.22 47.22h-23.61v-47.22h23.61zM380 273.63A232.78 232.78 0 00364.49 256c-60.1-60.1-116.87-116.14-166.94-66.08-41.52 41.52-33.26 118 16 180 1.54-.45 3.21-.75 4.78-1.17l29.26-29.26 16.69 16.69-5.58 5.58c9.26-.92 18.66-1.63 28.17-2 14.7-17 32-34.35 48.89-51.27A248.39 248.39 0 01380 273.63zm-132.37 32.49l-16.69-16.69L264.32 256 281 272.74zm0 0"/><path d="M370.31 309.31l32.43 32.43-16.74 16.7-33.39-33.39c-11.3 11.3-22.73 22.79-33.39 34.14h16.61c74.61 0 139.84 32.69 170.51 79.91 51.79-52.86 92.5-102.79 47.88-147.4-41.94-41.94-121.59-33.09-184 17.65zm100 65.82l-33.39-33.39 16.69-16.69L487 358.44zm0 0"/></g></svg>
