<svg xmlns="http://www.w3.org/2000/svg" viewBox="0 0 744 744"><path d="M414.22 328.13h10.56a21.11 21.11 0 000-42.22h-42.22v-42.22h10.56c40.74 0 73.89-33.85 73.89-74.59V148a10.55 10.55 0 00-10.56-10.56h-21.12A73.66 73.66 0 00372 173.87a73.66 73.66 0 00-63.33-36.44h-21.11A10.55 10.55 0 00277 148v21.1c0 40.74 33.15 74.59 73.89 74.59h10.56v42.22h-42.23a21.11 21.11 0 000 42.22h10.56v236.22a42.22 42.22 0 0084.44 0z"/><circle cx="372" cy="372" r="367" fill="none" stroke="#000" stroke-miterlimit="10" stroke-width="10"/></svg>
