<svg xmlns="http://www.w3.org/2000/svg" viewBox="0 0 490.67 490.67" fill="#1F242E">
  <path d="M245.33,0C110.06,0,0,110.06,0,245.33S110.06,490.67,245.33,490.67,490.67,380.61,490.67,245.33,380.61,0,245.33,0Z"/>
  <path d="M245.33,106.67a10.67,10.67,0,0,0-10.67,10.67v256a10.67,10.67,0,1,0,21.33,0v-256A10.67,10.67,0,0,0,245.33,106.67Z" fill="#fff"/>
  <path d="M338.22,195.12l-85.33-85.33a10.67,10.67,0,0,0-15.08,0l-85.33,85.33a10.67,10.67,0,1,0,15.08,15.08l77.78-77.78,77.78,77.8a10.68,10.68,0,0,0,15.1-15.1Z" fill="#fff"/>
</svg>
