<svg xmlns="http://www.w3.org/2000/svg" viewBox="0 0 490.67 490.67" fill="#1F242E"><path d="M245.33 0C110.06 0 0 110.06 0 245.33s110.06 245.34 245.33 245.34 245.34-110.06 245.34-245.34S380.61 0 245.33 0z"/><path d="M245.33 106.67a10.67 10.67 0 00-10.67 10.67v256a10.67 10.67 0 1021.33 0v-256a10.67 10.67 0 00-10.66-10.67z" fill="#fff"/><path d="M338.22 195.12l-85.33-85.33a10.67 10.67 0 00-15.08 0l-85.33 85.33a10.67 10.67 0 1015.08 15.08l77.78-77.78 77.78 77.8a10.68 10.68 0 0015.1-15.1z" fill="#fff"/></svg>